<svg width="164" height="24" viewBox="0 0 164 24" fill="none" xmlns="http://www.w3.org/2000/svg">
<path d="M7.36 8.384C7.30667 8.47467 7.25067 8.54133 7.192 8.584C7.13333 8.62667 7.05867 8.648 6.968 8.648C6.872 8.648 6.76267 8.60533 6.64 8.52C6.51733 8.42933 6.36267 8.33067 6.176 8.224C5.99467 8.112 5.776 8.01333 5.52 7.928C5.264 7.83733 4.95733 7.792 4.6 7.792C4.264 7.792 3.968 7.83733 3.712 7.928C3.46133 8.01333 3.25067 8.13333 3.08 8.288C2.90933 8.43733 2.77867 8.616 2.688 8.824C2.60267 9.02667 2.56 9.248 2.56 9.488C2.56 9.79733 2.63733 10.0533 2.792 10.256C2.952 10.4587 3.16 10.632 3.416 10.776C3.672 10.92 3.96267 11.0453 4.288 11.152C4.61333 11.2587 4.94667 11.3707 5.288 11.488C5.62933 11.6 5.96267 11.7307 6.288 11.88C6.61333 12.0293 6.904 12.2187 7.16 12.448C7.416 12.672 7.62133 12.9493 7.776 13.28C7.936 13.6053 8.016 14.0053 8.016 14.48C8.016 14.9867 7.928 15.4613 7.752 15.904C7.58133 16.3467 7.33067 16.7333 7 17.064C6.66933 17.3947 6.26133 17.656 5.776 17.848C5.296 18.0347 4.74933 18.128 4.136 18.128C3.768 18.128 3.41067 18.0907 3.064 18.016C2.71733 17.9467 2.38933 17.848 2.08 17.72C1.77067 17.5867 1.48 17.4293 1.208 17.248C0.941333 17.0613 0.701333 16.8533 0.488 16.624L0.976 15.808C1.024 15.744 1.08 15.6907 1.144 15.648C1.21333 15.6053 1.29067 15.584 1.376 15.584C1.488 15.584 1.616 15.6427 1.76 15.76C1.90933 15.8773 2.09067 16.008 2.304 16.152C2.52267 16.2907 2.78133 16.4187 3.08 16.536C3.384 16.6533 3.752 16.712 4.184 16.712C4.536 16.712 4.85067 16.6667 5.128 16.576C5.40533 16.48 5.63733 16.3467 5.824 16.176C6.016 16 6.16267 15.7893 6.264 15.544C6.36533 15.2987 6.416 15.0267 6.416 14.728C6.416 14.392 6.33867 14.1173 6.184 13.904C6.02933 13.6907 5.824 13.512 5.568 13.368C5.312 13.224 5.02133 13.1013 4.696 13C4.37067 12.8987 4.03733 12.7947 3.696 12.688C3.35467 12.576 3.02133 12.448 2.696 12.304C2.37067 12.16 2.08 11.9733 1.824 11.744C1.568 11.5093 1.36267 11.2187 1.208 10.872C1.05333 10.52 0.976 10.088 0.976 9.576C0.976 9.16533 1.056 8.768 1.216 8.384C1.376 8 1.608 7.66133 1.912 7.368C2.22133 7.06933 2.6 6.832 3.048 6.656C3.496 6.47467 4.008 6.384 4.584 6.384C5.22933 6.384 5.82133 6.488 6.36 6.696C6.904 6.89867 7.376 7.192 7.776 7.576L7.36 8.384ZM15.1363 13.032C15.1363 12.7227 15.0909 12.4373 15.0003 12.176C14.9149 11.9147 14.7869 11.688 14.6163 11.496C14.4456 11.304 14.2376 11.1547 13.9923 11.048C13.7469 10.9413 13.4643 10.888 13.1443 10.888C12.4883 10.888 11.9709 11.0773 11.5923 11.456C11.2189 11.8347 10.9816 12.36 10.8803 13.032H15.1363ZM16.4243 16.84C16.2323 17.064 16.0109 17.2587 15.7603 17.424C15.5096 17.584 15.2429 17.7147 14.9603 17.816C14.6776 17.9173 14.3843 17.992 14.0803 18.04C13.7816 18.088 13.4856 18.112 13.1923 18.112C12.6323 18.112 12.1123 18.0187 11.6323 17.832C11.1576 17.64 10.7443 17.3627 10.3923 17C10.0456 16.632 9.77358 16.1787 9.57625 15.64C9.38425 15.096 9.28825 14.472 9.28825 13.768C9.28825 13.2027 9.37625 12.6773 9.55225 12.192C9.72825 11.7013 9.97892 11.2747 10.3043 10.912C10.6349 10.5493 11.0376 10.264 11.5123 10.056C11.9869 9.848 12.5203 9.744 13.1123 9.744C13.6083 9.744 14.0643 9.82667 14.4803 9.992C14.9016 10.152 15.2643 10.3867 15.5683 10.696C15.8723 11.0053 16.1096 11.3867 16.2803 11.84C16.4563 12.2933 16.5443 12.8107 16.5443 13.392C16.5443 13.632 16.5176 13.7947 16.4643 13.88C16.4109 13.96 16.3123 14 16.1683 14H10.8403C10.8563 14.4853 10.9256 14.9093 11.0483 15.272C11.1709 15.6293 11.3389 15.928 11.5523 16.168C11.7709 16.408 12.0296 16.5867 12.3283 16.704C12.6269 16.8213 12.9603 16.88 13.3283 16.88C13.6749 16.88 13.9736 16.84 14.2243 16.76C14.4803 16.68 14.6989 16.5947 14.8803 16.504C15.0669 16.408 15.2216 16.32 15.3443 16.24C15.4723 16.16 15.5843 16.12 15.6803 16.12C15.8083 16.12 15.9069 16.168 15.9763 16.264L16.4243 16.84ZM23.605 13.032C23.605 12.7227 23.5597 12.4373 23.469 12.176C23.3837 11.9147 23.2557 11.688 23.085 11.496C22.9143 11.304 22.7063 11.1547 22.461 11.048C22.2157 10.9413 21.933 10.888 21.613 10.888C20.957 10.888 20.4397 11.0773 20.061 11.456C19.6877 11.8347 19.4503 12.36 19.349 13.032H23.605ZM24.893 16.84C24.701 17.064 24.4797 17.2587 24.229 17.424C23.9783 17.584 23.7117 17.7147 23.429 17.816C23.1463 17.9173 22.853 17.992 22.549 18.04C22.2503 18.088 21.9543 18.112 21.661 18.112C21.101 18.112 20.581 18.0187 20.101 17.832C19.6263 17.64 19.213 17.3627 18.861 17C18.5143 16.632 18.2423 16.1787 18.045 15.64C17.853 15.096 17.757 14.472 17.757 13.768C17.757 13.2027 17.845 12.6773 18.021 12.192C18.197 11.7013 18.4477 11.2747 18.773 10.912C19.1037 10.5493 19.5063 10.264 19.981 10.056C20.4557 9.848 20.989 9.744 21.581 9.744C22.077 9.744 22.533 9.82667 22.949 9.992C23.3703 10.152 23.733 10.3867 24.037 10.696C24.341 11.0053 24.5783 11.3867 24.749 11.84C24.925 12.2933 25.013 12.8107 25.013 13.392C25.013 13.632 24.9863 13.7947 24.933 13.88C24.8797 13.96 24.781 14 24.637 14H19.309C19.325 14.4853 19.3943 14.9093 19.517 15.272C19.6397 15.6293 19.8077 15.928 20.021 16.168C20.2397 16.408 20.4983 16.5867 20.797 16.704C21.0957 16.8213 21.429 16.88 21.797 16.88C22.1437 16.88 22.4423 16.84 22.693 16.76C22.949 16.68 23.1677 16.5947 23.349 16.504C23.5357 16.408 23.6903 16.32 23.813 16.24C23.941 16.16 24.053 16.12 24.149 16.12C24.277 16.12 24.3757 16.168 24.445 16.264L24.893 16.84ZM32.2966 16C32.5526 16.336 32.8273 16.5707 33.1206 16.704C33.4193 16.8373 33.7526 16.904 34.1206 16.904C34.8353 16.904 35.3873 16.648 35.7766 16.136C36.1713 15.6187 36.3686 14.8667 36.3686 13.88C36.3686 13.3627 36.3233 12.9227 36.2326 12.56C36.1473 12.192 36.0193 11.8933 35.8486 11.664C35.6833 11.4293 35.478 11.2587 35.2326 11.152C34.9873 11.04 34.71 10.984 34.4006 10.984C33.9473 10.984 33.5526 11.0853 33.2166 11.288C32.886 11.4907 32.5793 11.7787 32.2966 12.152V16ZM32.2166 11.088C32.3873 10.8853 32.5686 10.7013 32.7606 10.536C32.958 10.3653 33.1686 10.2213 33.3926 10.104C33.6166 9.98133 33.854 9.888 34.1046 9.824C34.3606 9.75467 34.6326 9.72 34.9206 9.72C35.3846 9.72 35.8033 9.81067 36.1766 9.992C36.5553 10.1733 36.878 10.44 37.1446 10.792C37.4113 11.144 37.6166 11.5787 37.7606 12.096C37.91 12.6133 37.9846 13.208 37.9846 13.88C37.9846 14.4827 37.902 15.0427 37.7366 15.56C37.5766 16.072 37.3446 16.5173 37.0406 16.896C36.742 17.2747 36.374 17.5733 35.9366 17.792C35.5046 18.0053 35.0166 18.112 34.4726 18.112C33.9873 18.112 33.5713 18.032 33.2246 17.872C32.878 17.712 32.5686 17.488 32.2966 17.2V20.728H30.7366V9.872H31.6726C31.8913 9.872 32.0273 9.976 32.0806 10.184L32.2166 11.088ZM41.2086 11.432C41.47 10.8987 41.7846 10.48 42.1526 10.176C42.5206 9.872 42.9633 9.72 43.4806 9.72C43.6566 9.72 43.822 9.74133 43.9766 9.784C44.1366 9.82133 44.2753 9.88 44.3926 9.96L44.2886 11.136C44.2513 11.28 44.1633 11.352 44.0246 11.352C43.95 11.352 43.838 11.3387 43.6886 11.312C43.5393 11.28 43.3793 11.264 43.2086 11.264C42.958 11.264 42.7366 11.3013 42.5446 11.376C42.3526 11.4453 42.1793 11.552 42.0246 11.696C41.8753 11.8347 41.742 12.008 41.6246 12.216C41.5073 12.4187 41.398 12.6507 41.2966 12.912V18H39.7366V9.872H40.6326C40.8033 9.872 40.918 9.904 40.9766 9.968C41.0406 10.0267 41.086 10.1333 41.1126 10.288L41.2086 11.432ZM48.7631 9.744C49.3605 9.744 49.8991 9.84267 50.3791 10.04C50.8645 10.232 51.2751 10.512 51.6111 10.88C51.9525 11.2427 52.2138 11.6827 52.3951 12.2C52.5765 12.712 52.6671 13.288 52.6671 13.928C52.6671 14.568 52.5765 15.1467 52.3951 15.664C52.2138 16.1813 51.9525 16.6213 51.6111 16.984C51.2751 17.3467 50.8645 17.6267 50.3791 17.824C49.8991 18.016 49.3605 18.112 48.7631 18.112C48.1605 18.112 47.6165 18.016 47.1311 17.824C46.6511 17.6267 46.2405 17.3467 45.8991 16.984C45.5578 16.6213 45.2938 16.1813 45.1071 15.664C44.9258 15.1467 44.8351 14.568 44.8351 13.928C44.8351 13.288 44.9258 12.712 45.1071 12.2C45.2938 11.6827 45.5578 11.2427 45.8991 10.88C46.2405 10.512 46.6511 10.232 47.1311 10.04C47.6165 9.84267 48.1605 9.744 48.7631 9.744ZM48.7631 16.896C49.5311 16.896 50.1045 16.6373 50.4831 16.12C50.8618 15.6027 51.0511 14.8747 51.0511 13.936C51.0511 12.9973 50.8618 12.2693 50.4831 11.752C50.1045 11.2293 49.5311 10.968 48.7631 10.968C47.9845 10.968 47.4031 11.2293 47.0191 11.752C46.6405 12.2693 46.4511 12.9973 46.4511 13.936C46.4511 14.8747 46.6405 15.6027 47.0191 16.12C47.4031 16.6373 47.9845 16.896 48.7631 16.896ZM56.0405 9.872V18.512C56.0405 18.848 55.9952 19.16 55.9045 19.448C55.8192 19.7413 55.6805 19.9947 55.4885 20.208C55.3018 20.4267 55.0565 20.5973 54.7525 20.72C54.4538 20.8427 54.0912 20.904 53.6645 20.904C53.4885 20.904 53.3285 20.8907 53.1845 20.864C53.0352 20.8373 52.8858 20.8 52.7365 20.752L52.8005 19.904C52.8218 19.8027 52.8698 19.7467 52.9445 19.736C53.0138 19.7253 53.1498 19.72 53.3525 19.72C53.7632 19.72 54.0538 19.6267 54.2245 19.44C54.3952 19.2533 54.4805 18.944 54.4805 18.512V9.872H56.0405ZM56.3365 7.36C56.3365 7.504 56.3072 7.64267 56.2485 7.776C56.1898 7.904 56.1098 8.01867 56.0085 8.12C55.9072 8.216 55.7898 8.29333 55.6565 8.352C55.5285 8.40533 55.3898 8.432 55.2405 8.432C55.0965 8.432 54.9605 8.40533 54.8325 8.352C54.7045 8.29333 54.5898 8.216 54.4885 8.12C54.3925 8.01867 54.3152 7.904 54.2565 7.776C54.2032 7.64267 54.1765 7.504 54.1765 7.36C54.1765 7.21067 54.2032 7.072 54.2565 6.944C54.3152 6.81067 54.3925 6.696 54.4885 6.6C54.5898 6.49867 54.7045 6.42133 54.8325 6.368C54.9605 6.30933 55.0965 6.28 55.2405 6.28C55.3898 6.28 55.5285 6.30933 55.6565 6.368C55.7898 6.42133 55.9072 6.49867 56.0085 6.6C56.1098 6.696 56.1898 6.81067 56.2485 6.944C56.3072 7.072 56.3365 7.21067 56.3365 7.36ZM63.6831 13.032C63.6831 12.7227 63.6378 12.4373 63.5471 12.176C63.4618 11.9147 63.3338 11.688 63.1631 11.496C62.9925 11.304 62.7845 11.1547 62.5391 11.048C62.2938 10.9413 62.0111 10.888 61.6911 10.888C61.0351 10.888 60.5178 11.0773 60.1391 11.456C59.7658 11.8347 59.5285 12.36 59.4271 13.032H63.6831ZM64.9711 16.84C64.7791 17.064 64.5578 17.2587 64.3071 17.424C64.0565 17.584 63.7898 17.7147 63.5071 17.816C63.2245 17.9173 62.9311 17.992 62.6271 18.04C62.3285 18.088 62.0325 18.112 61.7391 18.112C61.1791 18.112 60.6591 18.0187 60.1791 17.832C59.7045 17.64 59.2911 17.3627 58.9391 17C58.5925 16.632 58.3205 16.1787 58.1231 15.64C57.9311 15.096 57.8351 14.472 57.8351 13.768C57.8351 13.2027 57.9231 12.6773 58.0991 12.192C58.2751 11.7013 58.5258 11.2747 58.8511 10.912C59.1818 10.5493 59.5845 10.264 60.0591 10.056C60.5338 9.848 61.0671 9.744 61.6591 9.744C62.1551 9.744 62.6111 9.82667 63.0271 9.992C63.4485 10.152 63.8111 10.3867 64.1151 10.696C64.4191 11.0053 64.6565 11.3867 64.8271 11.84C65.0031 12.2933 65.0911 12.8107 65.0911 13.392C65.0911 13.632 65.0645 13.7947 65.0111 13.88C64.9578 13.96 64.8591 14 64.7151 14H59.3871C59.4031 14.4853 59.4725 14.9093 59.5951 15.272C59.7178 15.6293 59.8858 15.928 60.0991 16.168C60.3178 16.408 60.5765 16.5867 60.8751 16.704C61.1738 16.8213 61.5071 16.88 61.8751 16.88C62.2218 16.88 62.5205 16.84 62.7711 16.76C63.0271 16.68 63.2458 16.5947 63.4271 16.504C63.6138 16.408 63.7685 16.32 63.8911 16.24C64.0191 16.16 64.1311 16.12 64.2271 16.12C64.3551 16.12 64.4538 16.168 64.5231 16.264L64.9711 16.84ZM72.4639 11.392C72.4159 11.4507 72.3679 11.4987 72.3199 11.536C72.2772 11.568 72.2132 11.584 72.1279 11.584C72.0425 11.584 71.9519 11.552 71.8559 11.488C71.7652 11.4187 71.6479 11.3467 71.5039 11.272C71.3652 11.192 71.1945 11.12 70.9919 11.056C70.7945 10.9867 70.5492 10.952 70.2559 10.952C69.8719 10.952 69.5332 11.0213 69.2399 11.16C68.9465 11.2987 68.7012 11.496 68.5039 11.752C68.3119 12.008 68.1652 12.32 68.0639 12.688C67.9625 13.056 67.9119 13.4693 67.9119 13.928C67.9119 14.4027 67.9652 14.8267 68.0719 15.2C68.1785 15.568 68.3305 15.88 68.5279 16.136C68.7252 16.3867 68.9652 16.5787 69.2479 16.712C69.5305 16.84 69.8452 16.904 70.1919 16.904C70.5279 16.904 70.8052 16.864 71.0239 16.784C71.2425 16.6987 71.4239 16.608 71.5679 16.512C71.7119 16.416 71.8319 16.328 71.9279 16.248C72.0239 16.1627 72.1225 16.12 72.2239 16.12C72.3519 16.12 72.4505 16.168 72.5199 16.264L72.9679 16.84C72.7812 17.0693 72.5705 17.264 72.3359 17.424C72.1065 17.584 71.8612 17.7147 71.5999 17.816C71.3385 17.9173 71.0639 17.992 70.7759 18.04C70.4932 18.088 70.2052 18.112 69.9119 18.112C69.4052 18.112 68.9305 18.0187 68.4879 17.832C68.0505 17.6453 67.6692 17.3733 67.3439 17.016C67.0239 16.6587 66.7705 16.2213 66.5839 15.704C66.3972 15.1813 66.3039 14.5893 66.3039 13.928C66.3039 13.3253 66.3865 12.768 66.5519 12.256C66.7225 11.744 66.9705 11.304 67.2959 10.936C67.6265 10.5627 68.0319 10.272 68.5119 10.064C68.9919 9.85067 69.5412 9.744 70.1599 9.744C70.7412 9.744 71.2532 9.83733 71.6959 10.024C72.1385 10.2107 72.5332 10.4747 72.8799 10.816L72.4639 11.392ZM76.9681 18.128C76.3121 18.128 75.8055 17.944 75.4481 17.576C75.0961 17.208 74.9201 16.6827 74.9201 16V11.136H73.9761C73.8855 11.136 73.8081 11.1093 73.7441 11.056C73.6855 10.9973 73.6561 10.912 73.6561 10.8V10.168L74.9761 9.984L75.3281 7.56C75.3495 7.46933 75.3895 7.4 75.4481 7.352C75.5121 7.29867 75.5921 7.272 75.6881 7.272H76.4801V10H78.7841V11.136H76.4801V15.896C76.4801 16.216 76.5575 16.456 76.7121 16.616C76.8721 16.7707 77.0748 16.848 77.3201 16.848C77.4641 16.848 77.5868 16.8293 77.6881 16.792C77.7948 16.7547 77.8855 16.7147 77.9601 16.672C78.0348 16.624 78.0988 16.5813 78.1521 16.544C78.2055 16.5067 78.2535 16.488 78.2961 16.488C78.3495 16.488 78.3895 16.5013 78.4161 16.528C78.4481 16.5493 78.4801 16.5867 78.5121 16.64L78.9761 17.392C78.7201 17.6267 78.4161 17.808 78.0641 17.936C77.7121 18.064 77.3468 18.128 76.9681 18.128Z" fill="white"/>
<path d="M164 14L159 11.1132V16.8868L164 14ZM85 14.5H159.5V13.5H85V14.5Z" fill="white"/>
</svg>
